<svg xmlns="http://www.w3.org/2000/svg" xmlns:xlink="http://www.w3.org/1999/xlink" xmlns:lucid="lucid" width="1760" height="1360"><g transform="translate(0 0)" lucid:page-tab-id="0_0"><path d="M0 0h1760v1360H0z" fill="#fff"/><path d="M528.18 408c0-4.42 3.6-8 8-8h24c4.42 0 8 3.58 8 8v164c0 4.42-3.58 8-8 8h-24c-4.4 0-8-3.58-8-8zM875.04 408c0-4.42 3.58-8 8-8h24c4.42 0 8 3.58 8 8v444c0 4.42-3.58 8-8 8h-24c-4.42 0-8-3.58-8-8z" stroke="#f2f2f2" fill="#ced4db"/><path d="M453.15 221.08c0-4.42 3.58-8 8-8h174.07c4.42 0 8 3.58 8 8v106c0 4.42-3.58 8-8 8H461.15c-4.42 0-8-3.58-8-8z" stroke="#000" stroke-opacity="0" fill="#ffaf28"/><use xlink:href="#a" transform="matrix(1,0,0,1,461.14655278534315,221.08215297784318) translate(58.956790123456784 56.55555555555555)"/><path d="M800 221.08c0-4.42 3.58-8 8-8h174.08c4.4 0 8 3.58 8 8v106c0 4.42-3.6 8-8 8H808c-4.42 0-8-3.58-8-8z" stroke="#000" stroke-opacity="0" fill="#ffcc78"/><use xlink:href="#b" transform="matrix(1,0,0,1,808,221.08215297784318) translate(47.129629629629626 56.55555555555555)"/><path d="M1146.85 221.08c0-4.42 3.6-8 8-8h174.08c4.42 0 8 3.58 8 8v106c0 4.42-3.58 8-8 8h-174.08c-4.4 0-8-3.58-8-8z" stroke="#000" stroke-opacity="0" fill="#ffe6be"/><use xlink:href="#c" transform="matrix(1,0,0,1,1154.8534472146569,221.08215297784318) translate(56.98148148148148 56.55555555555555)"/><path d="M453.15 76c0-4.42 3.58-8 8-8h836.75c4.4 0 8 3.58 8 8v25.16c0 4.4-3.6 8-8 8H461.15c-4.42 0-8-3.6-8-8z" stroke="#000" stroke-opacity="0" stroke-width="2" fill="#fff" fill-opacity="0"/><use xlink:href="#d" transform="matrix(1,0,0,1,457.14655278534315,72) translate(301.4729629629629 25.782777777777778)"/><use xlink:href="#e" transform="matrix(1,0,0,1,457.14655278534315,72) translate(432.3655555555555 25.782777777777778)"/><use xlink:href="#f" transform="matrix(1,0,0,1,457.14655278534315,72) translate(541.479135802469 25.782777777777778)"/><path d="M725.02 107.8h318.26M725.04 107.8h-1.02M1043.26 107.8h1.02" stroke="#a9afb8" stroke-width="2" fill="none"/><path d="M453.15 117.16c0-4.42 3.58-8 8-8h837.7c4.42 0 8 3.58 8 8V120c0 4.42-3.58 8-8 8h-837.7c-4.42 0-8-3.58-8-8z" stroke="#000" stroke-opacity="0" stroke-width="2" fill="#fff" fill-opacity="0"/><use xlink:href="#g" transform="matrix(1,0,0,1,457.1465527853436,113.15522395689881) translate(281.3775925925926 14.917037037037037)"/><use xlink:href="#h" transform="matrix(1,0,0,1,457.1465527853436,113.15522395689881) translate(329.7308847736625 14.917037037037037)"/><use xlink:href="#i" transform="matrix(1,0,0,1,457.1465527853436,113.15522395689881) translate(373.79271604938265 14.917037037037037)"/><use xlink:href="#j" transform="matrix(1,0,0,1,457.1465527853436,113.15522395689881) translate(434.0006378600823 14.917037037037037)"/><use xlink:href="#k" transform="matrix(1,0,0,1,457.1465527853436,113.15522395689881) translate(446.4501234567901 14.917037037037037)"/><use xlink:href="#l" transform="matrix(1,0,0,1,457.1465527853436,113.15522395689881) translate(511.7568106995884 14.917037037037037)"/><use xlink:href="#m" transform="matrix(1,0,0,1,457.1465527853436,113.15522395689881) translate(537.2506378600823 14.917037037037037)"/><path d="M195.04 335.58v10.04m0 10.04v20.08m0 10.03v20.08m0 10.04v20.07m0 10.03v20.08m0 10.04v20.08m0 10.04v20.07m0 10.05v20.08m0 10.04v20.07m0 10.04v20.08m0 10.04v20.07m0 10.04v20.1m0 10.03V707m0 10.04v20.08m0 10.04v20.07m0 10.04v20.08m0 10.04v20.06m0 10.04v20.08m0 10.04v20.07m0 10.03v20.08m0 10.05v20.08m0 10.03v20.08m0 10.04v20.08m0 10.03v20.07m0 10.04v20.1m0 10.02v20.08m0 10.04v20.08m0 10.03v20.08m0 10.04v20.08m0 10.04v20.06m0 10.04v20.08m0 10.04v20.07m0 10.03v20.08m0 10.05v20.07m0 10.04v10.04" stroke="#333" fill="none"/><path d="M195.54 335.6h-1v-.52h1z" stroke="#333" stroke-width=".05" fill="#333"/><path d="M195.04 1359.5v.5" stroke="#333" fill="none"/><path d="M176.1 410.8c0-4.4 3.6-8 8-8h24c4.43 0 8 3.6 8 8V1352c0 4.42-3.57 8-8 8h-24c-4.4 0-8-3.58-8-8z" stroke="#f2f2f2" fill="#ced4db"/><path d="M100 221.08c0-4.42 3.58-8 8-8h174.08c4.4 0 8 3.58 8 8v106c0 4.42-3.6 8-8 8H108c-4.42 0-8-3.58-8-8z" stroke="#000" stroke-opacity="0" fill="#ffaf28"/><use xlink:href="#n" transform="matrix(1,0,0,1,108.00000000000003,221.08215297784318) translate(61.35185185185185 56.55555555555555)"/><path d="M1493.43 221.08c0-4.42 3.58-8 8-8h174.07c4.42 0 8 3.58 8 8v106c0 4.42-3.58 8-8 8h-174.07c-4.42 0-8-3.58-8-8z" stroke="#000" stroke-opacity="0" fill="#ffe6be"/><use xlink:href="#o" transform="matrix(1,0,0,1,1501.4267236073283,221.08215297784318) translate(49.05555555555555 56.55555555555555)"/><path d="M1221.9 408c0-4.42 3.57-8 8-8h24c4.4 0 8 3.58 8 8v684c0 4.42-3.6 8-8 8h-24c-4.43 0-8-3.58-8-8zM1580 408c0-4.42 3.58-8 8-8h24c4.42 0 8 3.58 8 8v684c0 4.42-3.58 8-8 8h-24c-4.42 0-8-3.58-8-8z" stroke="#f2f2f2" fill="#ced4db"/><path d="M895.04 335.58l.05 10.04m.04 10.04l.1 20.08m.04 10.03l.1 20.08m.05 10.04l.1 20.07m.04 10.03l.1 20.08m.05 10.04l.1 20.08m.05 10.04l.1 20.07m.04 10.05l.1 20.08m.06 10.04l.1 20.07m.04 10.04l.1 20.08m.05 10.04l.1 20.07m.05 10.04l.1 20.1m.04 10.03l.1 20.07m.05 10.04l.08 20.08m.05 10.04l.1 20.07m.05 10.04l.1 20.08m.04 10.04l.1 20.06m.05 10.04l.1 20.08m.05 10.04l.1 20.07m.04 10.03l.1 20.08m.05 10.05l.1 20.08m.05 10.03l.1 20.08m.05 10.04l.1 20.08m.05 10.03l.1 20.07m.04 10.04l.1 20.1m.04 10.02l.1 20.08m.04 10.04l.1 20.08m.05 10.03l.1 20.08m.04 10.04l.1 20.08m.05 10.04l.1 20.06m.05 10.04l.1 20.08m.04 10.04l.1 20.07m.06 10.03l.1 20.08m.04 10.05l.1 20.07m.05 10.04l.05 10.04" stroke="#333" fill="none"/><path d="M895.54 335.6h-1v-.52h1z" stroke="#333" stroke-width=".05" fill="#333"/><path d="M900 1359.5v.5M1240 335.58v10.04m0 10.04v20.08m0 10.03v20.08m0 10.04v20.07m0 10.03v20.08m0 10.04v20.08m0 10.04v20.07m0 10.05v20.08m0 10.04v20.07m0 10.04v20.08m0 10.04v20.07m0 10.04v20.1m0 10.03V707m0 10.04v20.08m0 10.04v20.07m0 10.04v20.08m0 10.04v20.06m0 10.04v20.08m0 10.04v20.07m0 10.03v20.08m0 10.05v20.08m0 10.03v20.08m0 10.04v20.08m0 10.03v20.07m0 10.04v20.1m0 10.02v20.08m0 10.04v20.08m0 10.03v20.08m0 10.04v20.08m0 10.04v20.06m0 10.04v20.08m0 10.04v20.07m0 10.03v20.08m0 10.05v20.07m0 10.04v10.04" stroke="#333" fill="none"/><path d="M1240.5 335.6h-1v-.52h1z" stroke="#333" stroke-width=".05" fill="#333"/><path d="M1240 1359.5v.5M1600 335.58v10.14m0 10.14v20.28m0 10.15v20.27m0 10.14V437m0 10.13v20.28m0 10.15v20.28m0 10.14v20.28m0 10.14v20.28m0 10.14v20.28m0 10.14v20.28m0 10.14v20.28m0 10.14v20.28m0 10.14v20.28m0 10.14v20.3m0 10.13v20.28m0 10.14v20.28m0 10.14v20.27m0 10.14v20.3m0 10.13v20.28m0 10.15v20.3m0 10.13v20.28m0 10.14v20.28m0 10.14V1015m0 10.14v20.28m0 10.14v20.28m0 10.15v20.27m0 10.14v20.3m0 10.13v20.28m0 10.15v20.28m0 10.14v20.28m0 10.14v20.28m0 10.14v20.28m0 10.14v20.28m0 10.14v10.14" stroke="#333" fill="none"/><path d="M1600.5 335.6h-1v-.52h1z" stroke="#333" stroke-width=".05" fill="#333"/><path d="M1600 1339.5v.5M527.18 456.64H233" stroke="#333" fill="none"/><path d="M527.68 457.14h-.5v-1h.5z" stroke="#333" stroke-width=".05" fill="#333"/><path d="M218.23 456.64L232.5 452v9.27z" stroke="#333" fill="#333"/><use xlink:href="#p" transform="matrix(1,0,0,1,319.2476637267579,460.63903427847026) translate(0.005000000000002558 14.4)"/><path d="M527.18 494.44H233" stroke="#333" fill="none"/><path d="M527.68 494.94h-.5v-1h.5z" stroke="#333" stroke-width=".05" fill="#333"/><path d="M218.23 494.44l14.27-4.64v9.28z" stroke="#333" fill="#333"/><use xlink:href="#q" transform="matrix(1,0,0,1,317.2476637267579,498.4402788379464) translate(0.005000000000002558 14.4)"/><path d="M527.18 526.2H233" stroke="#333" fill="none"/><path d="M527.68 526.7h-.5v-1h.5z" stroke="#333" stroke-width=".05" fill="#333"/><path d="M218.23 526.2l14.27-4.64v9.27z" stroke="#333" fill="#333"/><use xlink:href="#r" transform="matrix(1,0,0,1,329.7226637267579,530.1933242679062) translate(0.005000000000002558 14.4)"/><path d="M527.18 560H233" stroke="#333" fill="none"/><path d="M527.68 560.5h-.5v-1h.5z" stroke="#333" stroke-width=".05" fill="#333"/><path d="M218.23 560l14.27-4.64v9.28z" stroke="#333" fill="#333"/><use xlink:href="#s" transform="matrix(1,0,0,1,335.2726637267579,564.0000000000001) translate(0.005000000000002558 14.4)"/><path d="M545.04 335.58v10.04m0 10.04v20.08m0 10.03v20.08m0 10.04v20.07m0 10.03v20.08m0 10.04v20.08m0 10.04v20.07m0 10.05v20.08m0 10.04v20.07m0 10.04v20.08m0 10.04v20.07m0 10.04v20.1m0 10.03V707m0 10.04v20.08m0 10.04v20.07m0 10.04v20.08m0 10.04v20.06m0 10.04v20.08m0 10.04v20.07m0 10.03v20.08m0 10.05v20.08m0 10.03v20.08m0 10.04v20.08m0 10.03v20.07m0 10.04v20.1m0 10.02v20.08m0 10.04v20.08m0 10.03v20.08m0 10.04v20.08m0 10.04v20.06m0 10.04v20.08m0 10.04v20.07m0 10.03v20.08m0 10.05v20.07m0 10.04v10.04" stroke="#333" fill="none"/><path d="M545.54 335.6h-1v-.52h1z" stroke="#333" stroke-width=".05" fill="#333"/><path d="M545.04 1359.5v.5M874.04 497.46H585.08" stroke="#333" fill="none"/><path d="M874.54 497.96h-.52v-1h.52z" stroke="#333" stroke-width=".05" fill="#333"/><path d="M570.3 497.46l14.27-4.63v9.27z" stroke="#333" fill="#333"/><use xlink:href="#t" transform="matrix(1,0,0,1,683.685895457595,501.4643784027044) translate(0.005000000000002558 14.4)"/><path d="M916.04 564H1205" stroke="#333" fill="none"/><path d="M916.05 564.5h-.5v-1h.5z" stroke="#333" stroke-width=".05" fill="#333"/><path d="M1219.77 564l-14.26 4.63v-9.27z" stroke="#333" fill="#333"/><use xlink:href="#u" transform="matrix(1,0,0,1,1028.5643426722518,538.3945688273823) translate(0.005000000000002558 14.4)"/><path d="M1220.9 675.9H931.9" stroke="#333" fill="none"/><path d="M1221.4 676.4h-.52v-1h.5z" stroke="#333" stroke-width=".05" fill="#333"/><path d="M917.16 675.9l14.26-4.65v9.27z" stroke="#333" fill="#333"/><use xlink:href="#v" transform="matrix(1,0,0,1,1016.0893426722519,679.8862527234312) translate(0.005000000000002558 14.4)"/><path d="M1579 750h-300.22" stroke="#333" fill="none"/><path d="M1579.5 750.5h-.5v-1h.5z" stroke="#333" stroke-width=".05" fill="#333"/><path d="M1264 750l14.28-4.64v9.28z" stroke="#333" fill="#333"/><use xlink:href="#w" transform="matrix(1,0,0,1,1360.54553313979,754) translate(0.005000000000002558 14.4)"/><path d="M217.1 1156.72h1366.52" stroke="#333" fill="none"/><path d="M217.12 1157.22h-.5v-1h.5z" stroke="#333" stroke-width=".05" fill="#333"/><path d="M1598.38 1156.72l-14.26 4.63v-9.27z" stroke="#333" fill="#333"/><g><use xlink:href="#x" transform="matrix(1,0,0,1,848.3805778016247,1131.1180835199661) translate(0.005000000000002558 14.4)"/></g><path d="M217.1 1208.13h1366.52" stroke="#333" fill="none"/><path d="M217.12 1208.63h-.5v-1h.5z" stroke="#333" stroke-width=".05" fill="#333"/><path d="M1598.38 1208.13l-14.26 4.63v-9.27z" stroke="#333" fill="#333"/><g><use xlink:href="#y" transform="matrix(1,0,0,1,849.4555778016246,1182.5277761208533) translate(0.005000000000002558 14.4)"/></g><defs><path fill="#333" d="M87-220l-18 92h140l-5 28H64L45 0H11l48-248h178l-5 28H87" id="z"/><path fill="#333" d="M165-48c-4 18 1 34 23 27l-3 20c-29 8-62 0-52-35h-2C116-14 99 4 63 4 30 4 8-16 8-49c0-68 71-67 138-67 10-26 0-56-31-54-26 1-42 9-47 31l-32-5c8-67 160-71 144 15-5 28-9 54-15 81zM42-50c3 52 80 24 89-6 7-12 7-24 11-38-47 1-103-4-100 44" id="A"/><path fill="#333" d="M66-151c12-25 30-51 66-40l-6 26C45-176 58-65 38 0H6l36-190h30" id="B"/><path fill="#333" d="M248-111c6-24 9-61-24-58-72 9-57 108-77 169h-31l26-142c3-37-50-30-64-10C52-115 50-51 37 0H6l36-190h30c-1 10-6 24-4 32 13-43 101-52 105 5 13-22 29-41 61-41 90 0 28 129 23 194h-31" id="C"/><path fill="#333" d="M111-194c62-3 86 47 72 106H45c-7 38 6 69 45 68 27-1 43-14 53-32l24 11C152-15 129 4 87 4 38 3 12-23 12-71c0-70 32-119 99-123zm44 81c14-66-71-72-95-28-4 8-8 17-11 28h106" id="D"/><g id="a"><use transform="matrix(0.04938271604938272,0,0,0.04938271604938272,0,0)" xlink:href="#z"/><use transform="matrix(0.04938271604938272,0,0,0.04938271604938272,10.814814814814815,0)" xlink:href="#A"/><use transform="matrix(0.04938271604938272,0,0,0.04938271604938272,20.69135802469136,0)" xlink:href="#B"/><use transform="matrix(0.04938271604938272,0,0,0.04938271604938272,26.567901234567902,0)" xlink:href="#C"/><use transform="matrix(0.04938271604938272,0,0,0.04938271604938272,41.33333333333334,0)" xlink:href="#D"/><use transform="matrix(0.04938271604938272,0,0,0.04938271604938272,51.209876543209894,0)" xlink:href="#B"/><path fill="#333" d="M-.9 1.23h58.87v1.3H-.9z"/></g><path fill="#333" d="M248-139C247-14 144 9 11 0l48-248c105-6 190 8 189 109zm-34 0c1-70-52-87-126-82L50-27c98 7 163-21 164-112" id="E"/><path fill="#333" d="M50-231l6-30h32l-6 30H50zM6 0l37-190h31L37 0H6" id="F"/><path fill="#333" d="M55-144c13 50 104 24 104 88C159 21 15 23 1-39l26-10c6 40 102 42 102-4-13-50-104-23-104-87 0-71 143-71 148-8l-29 4c-5-35-85-37-89 0" id="G"/><path fill="#333" d="M51-54c-9 22 5 41 31 30L79-1C43 14 10-4 19-52l22-115H19l5-23h22l19-43h21l-9 43h35l-4 23H73" id="H"/><path fill="#333" d="M68-162c25-46 127-43 121 31C183-60 169 1 98 4 69 5 53-11 43-31L36 0H5l52-261h31zm88 36c2-27-9-43-34-43-55 0-70 51-70 103 0 29 15 45 43 46 52 0 58-58 61-106" id="I"/><path fill="#333" d="M67 3c-93-2-31-127-26-193h32L48-50c-3 39 53 32 70 12 30-34 30-101 43-152h32L157 0h-30c1-10 6-24 4-33-14 20-29 37-64 36" id="J"/><path fill="#333" d="M30-147c31-64 166-65 159 27C183-49 158 1 86 4 9 8 1-88 30-147zM88-20c53 0 68-48 68-100 0-31-11-51-44-50-52 1-68 46-68 97 0 32 13 53 44 53" id="K"/><g id="b"><use transform="matrix(0.04938271604938272,0,0,0.04938271604938272,0,0)" xlink:href="#E"/><use transform="matrix(0.04938271604938272,0,0,0.04938271604938272,12.790123456790125,0)" xlink:href="#F"/><use transform="matrix(0.04938271604938272,0,0,0.04938271604938272,16.69135802469136,0)" xlink:href="#G"/><use transform="matrix(0.04938271604938272,0,0,0.04938271604938272,25.58024691358025,0)" xlink:href="#H"/><use transform="matrix(0.04938271604938272,0,0,0.04938271604938272,30.518518518518523,0)" xlink:href="#B"/><use transform="matrix(0.04938271604938272,0,0,0.04938271604938272,36.39506172839506,0)" xlink:href="#F"/><use transform="matrix(0.04938271604938272,0,0,0.04938271604938272,40.2962962962963,0)" xlink:href="#I"/><use transform="matrix(0.04938271604938272,0,0,0.04938271604938272,50.17283950617284,0)" xlink:href="#J"/><use transform="matrix(0.04938271604938272,0,0,0.04938271604938272,60.04938271604939,0)" xlink:href="#H"/><use transform="matrix(0.04938271604938272,0,0,0.04938271604938272,64.98765432098766,0)" xlink:href="#K"/><use transform="matrix(0.04938271604938272,0,0,0.04938271604938272,74.8641975308642,0)" xlink:href="#B"/><path fill="#333" d="M-.9 1.23h82.53v1.3H-.9z"/></g><path fill="#333" d="M249-183c0 48-29 72-75 77L221 0h-36l-43-103H65L45 0H11l48-248c83 2 190-17 190 65zm-34 3c0-55-74-39-127-41l-18 92c63-1 145 13 145-51" id="L"/><path fill="#333" d="M6 0l50-261h32L37 0H6" id="M"/><g id="c"><use transform="matrix(0.04938271604938272,0,0,0.04938271604938272,0,0)" xlink:href="#L"/><use transform="matrix(0.04938271604938272,0,0,0.04938271604938272,12.790123456790125,0)" xlink:href="#D"/><use transform="matrix(0.04938271604938272,0,0,0.04938271604938272,22.66666666666667,0)" xlink:href="#H"/><use transform="matrix(0.04938271604938272,0,0,0.04938271604938272,27.604938271604947,0)" xlink:href="#A"/><use transform="matrix(0.04938271604938272,0,0,0.04938271604938272,37.48148148148149,0)" xlink:href="#F"/><use transform="matrix(0.04938271604938272,0,0,0.04938271604938272,41.38271604938272,0)" xlink:href="#M"/><use transform="matrix(0.04938271604938272,0,0,0.04938271604938272,45.283950617283956,0)" xlink:href="#D"/><use transform="matrix(0.04938271604938272,0,0,0.04938271604938272,55.1604938271605,0)" xlink:href="#B"/><path fill="#333" d="M-.9 1.23h62.82v1.3H-.88z"/></g><path fill="#a9afb8" d="M169-182c-1-43-94-46-97-3 18 66 151 10 154 114 3 95-165 93-204 36-6-8-10-19-12-30l50-8c3 46 112 56 116 5-17-69-150-10-154-114-4-87 153-88 188-35 5 8 8 18 10 28" id="N"/><path fill="#a9afb8" d="M185-48c-13 30-37 53-82 52C43 2 14-33 14-96s30-98 90-98c62 0 83 45 84 108H66c0 31 8 55 39 56 18 0 30-7 34-22zm-45-69c5-46-57-63-70-21-2 6-4 13-4 21h74" id="O"/><path fill="#a9afb8" d="M84 4C32 4 15-41 15-95c0-55 18-99 73-99 29 0 47 12 58 34l2-30h48l-1 265h-49V-32C136-9 114 4 84 4zm21-34c32 0 41-29 41-66 0-36-9-64-40-64-33 0-39 30-40 65 0 43 13 65 39 65" id="P"/><path fill="#a9afb8" d="M85 4C-2 5 27-109 22-190h50c7 57-23 150 33 157 60-5 35-97 40-157h50l1 190h-47c-2-12 1-28-3-38-12 25-28 42-61 42" id="Q"/><path fill="#a9afb8" d="M135-194c87-1 58 113 63 194h-50c-7-57 23-157-34-157-59 0-34 97-39 157H25l-1-190h47c2 12-1 28 3 38 12-26 28-41 61-42" id="R"/><path fill="#a9afb8" d="M190-63c-7 42-38 67-86 67-59 0-84-38-90-98-12-110 154-137 174-36l-49 2c-2-19-15-32-35-32-30 0-35 28-38 64-6 74 65 87 74 30" id="S"/><g id="d"><use transform="matrix(0.0728395061728395,0,0,0.0728395061728395,0,0)" xlink:href="#N"/><use transform="matrix(0.0728395061728395,0,0,0.0728395061728395,17.48148148148148,0)" xlink:href="#O"/><use transform="matrix(0.0728395061728395,0,0,0.0728395061728395,32.04938271604938,0)" xlink:href="#P"/><use transform="matrix(0.0728395061728395,0,0,0.0728395061728395,48.00123456790123,0)" xlink:href="#Q"/><use transform="matrix(0.0728395061728395,0,0,0.0728395061728395,63.95308641975308,0)" xlink:href="#O"/><use transform="matrix(0.0728395061728395,0,0,0.0728395061728395,78.52098765432098,0)" xlink:href="#R"/><use transform="matrix(0.0728395061728395,0,0,0.0728395061728395,94.47283950617283,0)" xlink:href="#S"/><use transform="matrix(0.0728395061728395,0,0,0.0728395061728395,109.04074074074072,0)" xlink:href="#O"/></g><path fill="#a9afb8" d="M88-194c31-1 46 15 58 34l-1-101h50l1 261h-48c-2-10 0-23-3-31C134-8 116 4 84 4 32 4 16-41 15-95c0-56 19-97 73-99zm17 164c33 0 40-30 41-66 1-37-9-64-41-64s-38 30-39 65c0 43 13 65 39 65" id="T"/><path fill="#a9afb8" d="M25-224v-37h50v37H25zM25 0v-190h50V0H25" id="U"/><path fill="#a9afb8" d="M133-34C117-15 103 5 69 4 32 3 11-16 11-54c-1-60 55-63 116-61 1-26-3-47-28-47-18 1-26 9-28 27l-52-2c7-38 36-58 82-57s74 22 75 68l1 82c-1 14 12 18 25 15v27c-30 8-71 5-69-32zm-48 3c29 0 43-24 42-57-32 0-66-3-65 30 0 17 8 27 23 27" id="V"/><path fill="#a9afb8" d="M195-6C206 82 75 100 31 46c-4-6-6-13-8-21l49-6c3 16 16 24 34 25 40 0 42-37 40-79-11 22-30 35-61 35-53 0-70-43-70-97 0-56 18-96 73-97 30 0 46 14 59 34l2-30h47zm-90-29c32 0 41-27 41-63 0-35-9-62-40-62-32 0-39 29-40 63 0 36 9 62 39 62" id="W"/><path fill="#a9afb8" d="M135-150c-39-12-60 13-60 57V0H25l-1-190h47c2 13-1 29 3 40 6-28 27-53 61-41v41" id="X"/><path fill="#a9afb8" d="M220-157c-53 9-28 100-34 157h-49v-107c1-27-5-49-29-50C55-147 81-57 75 0H25l-1-190h47c2 12-1 28 3 38 10-53 101-56 108 0 13-22 24-43 59-42 82 1 51 116 57 194h-49v-107c-1-25-5-48-29-50" id="Y"/><g id="e"><use transform="matrix(0.0728395061728395,0,0,0.0728395061728395,0,0)" xlink:href="#T"/><use transform="matrix(0.0728395061728395,0,0,0.0728395061728395,15.95185185185185,0)" xlink:href="#U"/><use transform="matrix(0.0728395061728395,0,0,0.0728395061728395,23.235802469135802,0)" xlink:href="#V"/><use transform="matrix(0.0728395061728395,0,0,0.0728395061728395,37.803703703703704,0)" xlink:href="#W"/><use transform="matrix(0.0728395061728395,0,0,0.0728395061728395,53.75555555555555,0)" xlink:href="#X"/><use transform="matrix(0.0728395061728395,0,0,0.0728395061728395,63.953086419753085,0)" xlink:href="#V"/><use transform="matrix(0.0728395061728395,0,0,0.0728395061728395,78.52098765432099,0)" xlink:href="#Y"/></g><path fill="#a9afb8" d="M14-72v-43h91v43H14" id="Z"/><use transform="matrix(0.0728395061728395,0,0,0.0728395061728395,0,0)" xlink:href="#Z" id="f"/><path fill="#a9afb8" d="M185-189c-5-48-123-54-124 2 14 75 158 14 163 119 3 78-121 87-175 55-17-10-28-26-33-46l33-7c5 56 141 63 141-1 0-78-155-14-162-118-5-82 145-84 179-34 5 7 8 16 11 25" id="aa"/><path fill="#a9afb8" d="M100-194c63 0 86 42 84 106H49c0 40 14 67 53 68 26 1 43-12 49-29l28 8c-11 28-37 45-77 45C44 4 14-33 15-96c1-61 26-98 85-98zm52 81c6-60-76-77-97-28-3 7-6 17-6 28h103" id="ab"/><path fill="#a9afb8" d="M114-163C36-179 61-72 57 0H25l-1-190h30c1 12-1 29 2 39 6-27 23-49 58-41v29" id="ac"/><path fill="#a9afb8" d="M177-190C167-65 218 103 67 71c-23-6-38-20-44-43l32-5c15 47 100 32 89-28v-30C133-14 115 1 83 1 29 1 15-40 15-95c0-56 16-97 71-98 29-1 48 16 59 35 1-10 0-23 2-32h30zM94-22c36 0 50-32 50-73 0-42-14-75-50-75-39 0-46 34-46 75s6 73 46 73" id="ad"/><path fill="#a9afb8" d="M24-231v-30h32v30H24zM24 0v-190h32V0H24" id="ae"/><path fill="#a9afb8" d="M84 4C-5 8 30-112 23-190h32v120c0 31 7 50 39 49 72-2 45-101 50-169h31l1 190h-30c-1-10 1-25-2-33-11 22-28 36-60 37" id="af"/><g id="g"><use transform="matrix(0.04248971193415638,0,0,0.04248971193415638,0,0)" xlink:href="#aa"/><use transform="matrix(0.04248971193415638,0,0,0.04248971193415638,10.19753086419753,0)" xlink:href="#ab"/><use transform="matrix(0.04248971193415638,0,0,0.04248971193415638,18.695473251028805,0)" xlink:href="#ac"/><use transform="matrix(0.04248971193415638,0,0,0.04248971193415638,23.751748971193415,0)" xlink:href="#ad"/><use transform="matrix(0.04248971193415638,0,0,0.04248971193415638,32.24969135802469,0)" xlink:href="#ae"/><use transform="matrix(0.04248971193415638,0,0,0.04248971193415638,35.60637860082304,0)" xlink:href="#af"/></g><path fill="#a9afb8" d="M190 0L58-211 59 0H30v-248h39L202-35l-2-213h31V0h-41" id="ag"/><path fill="#a9afb8" d="M135-143c-3-34-86-38-87 0 15 53 115 12 119 90S17 21 10-45l28-5c4 36 97 45 98 0-10-56-113-15-118-90-4-57 82-63 122-42 12 7 21 19 24 35" id="ah"/><path fill="#a9afb8" d="M59-47c-2 24 18 29 38 22v24C64 9 27 4 27-40v-127H5v-23h24l9-43h21v43h35v23H59v120" id="ai"/><path fill="#a9afb8" d="M100-194c62-1 85 37 85 99 1 63-27 99-86 99S16-35 15-95c0-66 28-99 85-99zM99-20c44 1 53-31 53-75 0-43-8-75-51-75s-53 32-53 75 10 74 51 75" id="aj"/><g id="h"><use transform="matrix(0.04248971193415638,0,0,0.04248971193415638,0,0)" xlink:href="#ag"/><use transform="matrix(0.04248971193415638,0,0,0.04248971193415638,11.004835390946502,0)" xlink:href="#ae"/><use transform="matrix(0.04248971193415638,0,0,0.04248971193415638,14.361522633744855,0)" xlink:href="#ah"/><use transform="matrix(0.04248971193415638,0,0,0.04248971193415638,22.009670781893004,0)" xlink:href="#ai"/><use transform="matrix(0.04248971193415638,0,0,0.04248971193415638,26.25864197530864,0)" xlink:href="#aj"/><use transform="matrix(0.04248971193415638,0,0,0.04248971193415638,34.75658436213992,0)" xlink:href="#ac"/></g><path fill="#a9afb8" d="M212-179c-10-28-35-45-73-45-59 0-87 40-87 99 0 60 29 101 89 101 43 0 62-24 78-52l27 14C228-24 195 4 139 4 59 4 22-46 18-125c-6-104 99-153 187-111 19 9 31 26 39 46" id="ak"/><path fill="#a9afb8" d="M210-169c-67 3-38 105-44 169h-31v-121c0-29-5-50-35-48C34-165 62-65 56 0H25l-1-190h30c1 10-1 24 2 32 10-44 99-50 107 0 11-21 27-35 58-36 85-2 47 119 55 194h-31v-121c0-29-5-49-35-48" id="al"/><path fill="#a9afb8" d="M117-194c89-4 53 116 60 194h-32v-121c0-31-8-49-39-48C34-167 62-67 57 0H25l-1-190h30c1 10-1 24 2 32 11-22 29-35 61-36" id="am"/><g id="i"><use transform="matrix(0.04248971193415638,0,0,0.04248971193415638,0,0)" xlink:href="#ak"/><use transform="matrix(0.04248971193415638,0,0,0.04248971193415638,11.004835390946502,0)" xlink:href="#aj"/><use transform="matrix(0.04248971193415638,0,0,0.04248971193415638,19.502777777777776,0)" xlink:href="#ah"/><use transform="matrix(0.04248971193415638,0,0,0.04248971193415638,27.150925925925925,0)" xlink:href="#al"/><use transform="matrix(0.04248971193415638,0,0,0.04248971193415638,39.855349794238684,0)" xlink:href="#ae"/><use transform="matrix(0.04248971193415638,0,0,0.04248971193415638,43.212037037037035,0)" xlink:href="#am"/></g><path fill="#a9afb8" d="M32 76v-337h29V76H32" id="an"/><use transform="matrix(0.04248971193415638,0,0,0.04248971193415638,0,0)" xlink:href="#an" id="j"/><path fill="#a9afb8" d="M63-220v92h138v28H63V0H30v-248h175v28H63" id="ao"/><path fill="#a9afb8" d="M115-194c53 0 69 39 70 98 0 66-23 100-70 100C84 3 66-7 56-30L54 0H23l1-261h32v101c10-23 28-34 59-34zm-8 174c40 0 45-34 45-75 0-40-5-75-45-74-42 0-51 32-51 76 0 43 10 73 51 73" id="ap"/><path fill="#a9afb8" d="M141-36C126-15 110 5 73 4 37 3 15-17 15-53c-1-64 63-63 125-63 3-35-9-54-41-54-24 1-41 7-42 31l-33-3c5-37 33-52 76-52 45 0 72 20 72 64v82c-1 20 7 32 28 27v20c-31 9-61-2-59-35zM48-53c0 20 12 33 32 33 41-3 63-29 60-74-43 2-92-5-92 41" id="aq"/><path fill="#a9afb8" d="M179-190L93 31C79 59 56 82 12 73V49c39 6 53-20 64-50L1-190h34L92-34l54-156h33" id="ar"/><g id="k"><use transform="matrix(0.04248971193415638,0,0,0.04248971193415638,0,0)" xlink:href="#ao"/><use transform="matrix(0.04248971193415638,0,0,0.04248971193415638,9.305246913580246,0)" xlink:href="#ab"/><use transform="matrix(0.04248971193415638,0,0,0.04248971193415638,17.80318930041152,0)" xlink:href="#ap"/><use transform="matrix(0.04248971193415638,0,0,0.04248971193415638,26.301131687242794,0)" xlink:href="#ac"/><use transform="matrix(0.04248971193415638,0,0,0.04248971193415638,31.357407407407408,0)" xlink:href="#af"/><use transform="matrix(0.04248971193415638,0,0,0.04248971193415638,39.85534979423868,0)" xlink:href="#aq"/><use transform="matrix(0.04248971193415638,0,0,0.04248971193415638,48.35329218106995,0)" xlink:href="#ac"/><use transform="matrix(0.04248971193415638,0,0,0.04248971193415638,53.40956790123455,0)" xlink:href="#ar"/></g><path fill="#a9afb8" d="M101-251c82-7 93 87 43 132L82-64C71-53 59-42 53-27h129V0H18c2-99 128-94 128-182 0-28-16-43-45-43s-46 15-49 41l-32-3c6-41 34-60 81-64" id="as"/><path fill="#a9afb8" d="M126-127c33 6 58 20 58 59 0 88-139 92-164 29-3-8-5-16-6-25l32-3c6 27 21 44 54 44 32 0 52-15 52-46 0-38-36-46-79-43v-28c39 1 72-4 72-42 0-27-17-43-46-43-28 0-47 15-49 41l-32-3c6-42 35-63 81-64 48-1 79 21 79 65 0 36-21 52-52 59" id="at"/><path fill="#a9afb8" d="M68-38c1 34 0 65-14 84H32c9-13 17-26 17-46H33v-38h35" id="au"/><g id="l"><use transform="matrix(0.04248971193415638,0,0,0.04248971193415638,0,0)" xlink:href="#as"/><use transform="matrix(0.04248971193415638,0,0,0.04248971193415638,8.497942386831275,0)" xlink:href="#at"/><use transform="matrix(0.04248971193415638,0,0,0.04248971193415638,16.99588477366255,0)" xlink:href="#au"/></g><path fill="#a9afb8" d="M101-251c68 0 85 55 85 127S166 4 100 4C33 4 14-52 14-124c0-73 17-127 87-127zm-1 229c47 0 54-49 54-102s-4-102-53-102c-51 0-55 48-55 102 0 53 5 102 54 102" id="av"/><g id="m"><use transform="matrix(0.04248971193415638,0,0,0.04248971193415638,0,0)" xlink:href="#as"/><use transform="matrix(0.04248971193415638,0,0,0.04248971193415638,8.497942386831275,0)" xlink:href="#av"/><use transform="matrix(0.04248971193415638,0,0,0.04248971193415638,16.99588477366255,0)" xlink:href="#as"/><use transform="matrix(0.04248971193415638,0,0,0.04248971193415638,25.493827160493822,0)" xlink:href="#as"/></g><path fill="#333" d="M125-24c46 0 70-25 89-51l25 16C214-24 183 4 123 4 8 4-5-146 60-208c32-50 158-61 191-5 5 7 9 14 11 22l-32 10c-9-28-33-43-69-43-74 0-108 51-108 125 0 46 24 75 72 75" id="aw"/><path fill="#333" d="M76-167L44 0H12l33-167H18l4-23h27c3-47 25-81 82-69l-4 24c-35-8-44 15-46 45h37l-5 23H76" id="ax"/><g id="n"><use transform="matrix(0.04938271604938272,0,0,0.04938271604938272,0,0)" xlink:href="#aw"/><use transform="matrix(0.04938271604938272,0,0,0.04938271604938272,12.790123456790125,0)" xlink:href="#K"/><use transform="matrix(0.04938271604938272,0,0,0.04938271604938272,22.66666666666667,0)" xlink:href="#ax"/><use transform="matrix(0.04938271604938272,0,0,0.04938271604938272,27.604938271604947,0)" xlink:href="#ax"/><use transform="matrix(0.04938271604938272,0,0,0.04938271604938272,32.543209876543216,0)" xlink:href="#D"/><use transform="matrix(0.04938271604938272,0,0,0.04938271604938272,42.41975308641976,0)" xlink:href="#D"/><path fill="#333" d="M-.9 1.23H53.2v1.3H-.9z"/></g><g id="o"><use transform="matrix(0.04938271604938272,0,0,0.04938271604938272,0,0)" xlink:href="#aw"/><use transform="matrix(0.04938271604938272,0,0,0.04938271604938272,12.790123456790125,0)" xlink:href="#J"/><use transform="matrix(0.04938271604938272,0,0,0.04938271604938272,22.66666666666667,0)" xlink:href="#G"/><use transform="matrix(0.04938271604938272,0,0,0.04938271604938272,31.555555555555557,0)" xlink:href="#H"/><use transform="matrix(0.04938271604938272,0,0,0.04938271604938272,36.49382716049384,0)" xlink:href="#K"/><use transform="matrix(0.04938271604938272,0,0,0.04938271604938272,46.37037037037038,0)" xlink:href="#C"/><use transform="matrix(0.04938271604938272,0,0,0.04938271604938272,61.13580246913581,0)" xlink:href="#D"/><use transform="matrix(0.04938271604938272,0,0,0.04938271604938272,71.01234567901236,0)" xlink:href="#B"/><path fill="#333" d="M-.9 1.23H77.8v1.3H-.9z"/></g><path fill="#333" d="M106-169C34-169 62-67 57 0H25v-261h32l-1 103c12-21 28-36 61-36 89 0 53 116 60 194h-32v-121c2-32-8-49-39-48" id="ay"/><path fill="#333" d="M141-36C126-15 110 5 73 4 37 3 15-17 15-53c-1-64 63-63 125-63 3-35-9-54-41-54-24 1-41 7-42 31l-33-3c5-37 33-52 76-52 45 0 72 20 72 64v82c-1 20 7 32 28 27v20c-31 9-61-2-59-35zM48-53c0 20 12 33 32 33 41-3 63-29 60-74-43 2-92-5-92 41" id="az"/><path fill="#333" d="M114-163C36-179 61-72 57 0H25l-1-190h30c1 12-1 29 2 39 6-27 23-49 58-41v29" id="aA"/><path fill="#333" d="M108 0H70L1-190h34L89-25l56-165h34" id="aB"/><path fill="#333" d="M100-194c63 0 86 42 84 106H49c0 40 14 67 53 68 26 1 43-12 49-29l28 8c-11 28-37 45-77 45C44 4 14-33 15-96c1-61 26-98 85-98zm52 81c6-60-76-77-97-28-3 7-6 17-6 28h103" id="aC"/><path fill="#333" d="M135-143c-3-34-86-38-87 0 15 53 115 12 119 90S17 21 10-45l28-5c4 36 97 45 98 0-10-56-113-15-118-90-4-57 82-63 122-42 12 7 21 19 24 35" id="aD"/><path fill="#333" d="M59-47c-2 24 18 29 38 22v24C64 9 27 4 27-40v-127H5v-23h24l9-43h21v43h35v23H59v120" id="aE"/><path fill="#333" d="M33 0v-248h34V0H33" id="aF"/><path fill="#333" d="M210-169c-67 3-38 105-44 169h-31v-121c0-29-5-50-35-48C34-165 62-65 56 0H25l-1-190h30c1 10-1 24 2 32 10-44 99-50 107 0 11-21 27-35 58-36 85-2 47 119 55 194h-31v-121c0-29-5-49-35-48" id="aG"/><path fill="#333" d="M87 75C49 33 22-17 22-94c0-76 28-126 65-167h31c-38 41-64 92-64 168S80 34 118 75H87" id="aH"/><path fill="#333" d="M33-261c38 41 65 92 65 168S71 34 33 75H2C39 34 66-17 66-93S39-220 2-261h31" id="aI"/><g id="p"><use transform="matrix(0.05,0,0,0.05,0,0)" xlink:href="#ay"/><use transform="matrix(0.05,0,0,0.05,10,0)" xlink:href="#az"/><use transform="matrix(0.05,0,0,0.05,20,0)" xlink:href="#aA"/><use transform="matrix(0.05,0,0,0.05,25.950000000000003,0)" xlink:href="#aB"/><use transform="matrix(0.05,0,0,0.05,34.95,0)" xlink:href="#aC"/><use transform="matrix(0.05,0,0,0.05,44.95,0)" xlink:href="#aD"/><use transform="matrix(0.05,0,0,0.05,53.95,0)" xlink:href="#aE"/><use transform="matrix(0.05,0,0,0.05,58.95,0)" xlink:href="#aF"/><use transform="matrix(0.05,0,0,0.05,63.95,0)" xlink:href="#aE"/><use transform="matrix(0.05,0,0,0.05,68.95,0)" xlink:href="#aC"/><use transform="matrix(0.05,0,0,0.05,78.95,0)" xlink:href="#aG"/><use transform="matrix(0.05,0,0,0.05,93.9,0)" xlink:href="#aH"/><use transform="matrix(0.05,0,0,0.05,99.85000000000001,0)" xlink:href="#aI"/></g><path fill="#333" d="M115-194c55 1 70 41 70 98S169 2 115 4C84 4 66-9 55-30l1 105H24l-1-265h31l2 30c10-21 28-34 59-34zm-8 174c40 0 45-34 45-75s-6-73-45-74c-42 0-51 32-51 76 0 43 10 73 51 73" id="aJ"/><path fill="#333" d="M100-194c62-1 85 37 85 99 1 63-27 99-86 99S16-35 15-95c0-66 28-99 85-99zM99-20c44 1 53-31 53-75 0-43-8-75-51-75s-53 32-53 75 10 74 51 75" id="aK"/><path fill="#333" d="M96-169c-40 0-48 33-48 73s9 75 48 75c24 0 41-14 43-38l32 2c-6 37-31 61-74 61-59 0-76-41-82-99-10-93 101-131 147-64 4 7 5 14 7 22l-32 3c-4-21-16-35-41-35" id="aL"/><g id="q"><use transform="matrix(0.05,0,0,0.05,0,0)" xlink:href="#aJ"/><use transform="matrix(0.05,0,0,0.05,10,0)" xlink:href="#aA"/><use transform="matrix(0.05,0,0,0.05,15.949999999999998,0)" xlink:href="#aK"/><use transform="matrix(0.05,0,0,0.05,25.950000000000003,0)" xlink:href="#aL"/><use transform="matrix(0.05,0,0,0.05,34.95,0)" xlink:href="#aC"/><use transform="matrix(0.05,0,0,0.05,44.95,0)" xlink:href="#aD"/><use transform="matrix(0.05,0,0,0.05,53.95,0)" xlink:href="#aD"/><use transform="matrix(0.05,0,0,0.05,62.95,0)" xlink:href="#aF"/><use transform="matrix(0.05,0,0,0.05,67.95,0)" xlink:href="#aE"/><use transform="matrix(0.05,0,0,0.05,72.95,0)" xlink:href="#aC"/><use transform="matrix(0.05,0,0,0.05,82.95,0)" xlink:href="#aG"/><use transform="matrix(0.05,0,0,0.05,97.9,0)" xlink:href="#aH"/><use transform="matrix(0.05,0,0,0.05,103.85000000000001,0)" xlink:href="#aI"/></g><path fill="#333" d="M143 0L79-87 56-68V0H24v-261h32v163l83-92h37l-77 82L181 0h-38" id="aM"/><g id="r"><use transform="matrix(0.05,0,0,0.05,0,0)" xlink:href="#aJ"/><use transform="matrix(0.05,0,0,0.05,10,0)" xlink:href="#az"/><use transform="matrix(0.05,0,0,0.05,20,0)" xlink:href="#aL"/><use transform="matrix(0.05,0,0,0.05,29,0)" xlink:href="#aM"/><use transform="matrix(0.05,0,0,0.05,38,0)" xlink:href="#aF"/><use transform="matrix(0.05,0,0,0.05,43,0)" xlink:href="#aE"/><use transform="matrix(0.05,0,0,0.05,48,0)" xlink:href="#aC"/><use transform="matrix(0.05,0,0,0.05,58,0)" xlink:href="#aG"/><use transform="matrix(0.05,0,0,0.05,72.95,0)" xlink:href="#aH"/><use transform="matrix(0.05,0,0,0.05,78.9,0)" xlink:href="#aI"/></g><path fill="#333" d="M24 0v-261h32V0H24" id="aN"/><g id="s"><use transform="matrix(0.05,0,0,0.05,0,0)" xlink:href="#aD"/><use transform="matrix(0.05,0,0,0.05,9,0)" xlink:href="#aC"/><use transform="matrix(0.05,0,0,0.05,19,0)" xlink:href="#aN"/><use transform="matrix(0.05,0,0,0.05,22.95,0)" xlink:href="#aN"/><use transform="matrix(0.05,0,0,0.05,26.899999999999995,0)" xlink:href="#aF"/><use transform="matrix(0.05,0,0,0.05,31.899999999999995,0)" xlink:href="#aE"/><use transform="matrix(0.05,0,0,0.05,36.9,0)" xlink:href="#aC"/><use transform="matrix(0.05,0,0,0.05,46.9,0)" xlink:href="#aG"/><use transform="matrix(0.05,0,0,0.05,61.85,0)" xlink:href="#aH"/><use transform="matrix(0.05,0,0,0.05,67.8,0)" xlink:href="#aI"/></g><path fill="#333" d="M115-194c53 0 69 39 70 98 0 66-23 100-70 100C84 3 66-7 56-30L54 0H23l1-261h32v101c10-23 28-34 59-34zm-8 174c40 0 45-34 45-75 0-40-5-75-45-74-42 0-51 32-51 76 0 43 10 73 51 73" id="aO"/><path fill="#333" d="M84 4C-5 8 30-112 23-190h32v120c0 31 7 50 39 49 72-2 45-101 50-169h31l1 190h-30c-1-10 1-25-2-33-11 22-28 36-60 37" id="aP"/><path fill="#333" d="M179-190L93 31C79 59 56 82 12 73V49c39 6 53-20 64-50L1-190h34L92-34l54-156h33" id="aQ"/><g id="t"><use transform="matrix(0.05,0,0,0.05,0,0)" xlink:href="#aO"/><use transform="matrix(0.05,0,0,0.05,10,0)" xlink:href="#aP"/><use transform="matrix(0.05,0,0,0.05,20,0)" xlink:href="#aQ"/><use transform="matrix(0.05,0,0,0.05,29,0)" xlink:href="#aF"/><use transform="matrix(0.05,0,0,0.05,34,0)" xlink:href="#aE"/><use transform="matrix(0.05,0,0,0.05,39,0)" xlink:href="#aC"/><use transform="matrix(0.05,0,0,0.05,49,0)" xlink:href="#aG"/><use transform="matrix(0.05,0,0,0.05,63.95,0)" xlink:href="#aH"/><use transform="matrix(0.05,0,0,0.05,69.9,0)" xlink:href="#aI"/></g><path fill="#333" d="M24-231v-30h32v30H24zM24 0v-190h32V0H24" id="aR"/><g id="u"><use transform="matrix(0.05,0,0,0.05,0,0)" xlink:href="#aD"/><use transform="matrix(0.05,0,0,0.05,9,0)" xlink:href="#ay"/><use transform="matrix(0.05,0,0,0.05,19,0)" xlink:href="#aR"/><use transform="matrix(0.05,0,0,0.05,22.95,0)" xlink:href="#aJ"/><use transform="matrix(0.05,0,0,0.05,32.95,0)" xlink:href="#aF"/><use transform="matrix(0.05,0,0,0.05,37.95,0)" xlink:href="#aE"/><use transform="matrix(0.05,0,0,0.05,42.95,0)" xlink:href="#aC"/><use transform="matrix(0.05,0,0,0.05,52.95,0)" xlink:href="#aG"/><use transform="matrix(0.05,0,0,0.05,67.9,0)" xlink:href="#aH"/><use transform="matrix(0.05,0,0,0.05,73.85000000000001,0)" xlink:href="#aI"/></g><g id="v"><use transform="matrix(0.05,0,0,0.05,0,0)" xlink:href="#aA"/><use transform="matrix(0.05,0,0,0.05,5.95,0)" xlink:href="#aC"/><use transform="matrix(0.05,0,0,0.05,15.949999999999998,0)" xlink:href="#aL"/><use transform="matrix(0.05,0,0,0.05,24.95,0)" xlink:href="#aC"/><use transform="matrix(0.05,0,0,0.05,34.95,0)" xlink:href="#aR"/><use transform="matrix(0.05,0,0,0.05,38.900000000000006,0)" xlink:href="#aB"/><use transform="matrix(0.05,0,0,0.05,47.900000000000006,0)" xlink:href="#aC"/><use transform="matrix(0.05,0,0,0.05,57.900000000000006,0)" xlink:href="#aF"/><use transform="matrix(0.05,0,0,0.05,62.900000000000006,0)" xlink:href="#aE"/><use transform="matrix(0.05,0,0,0.05,67.9,0)" xlink:href="#aC"/><use transform="matrix(0.05,0,0,0.05,77.9,0)" xlink:href="#aG"/><use transform="matrix(0.05,0,0,0.05,92.85000000000001,0)" xlink:href="#aH"/><use transform="matrix(0.05,0,0,0.05,98.80000000000001,0)" xlink:href="#aI"/></g><g id="w"><use transform="matrix(0.05,0,0,0.05,0,0)" xlink:href="#aJ"/><use transform="matrix(0.05,0,0,0.05,10,0)" xlink:href="#aP"/><use transform="matrix(0.05,0,0,0.05,20,0)" xlink:href="#aA"/><use transform="matrix(0.05,0,0,0.05,25.950000000000003,0)" xlink:href="#aL"/><use transform="matrix(0.05,0,0,0.05,34.95,0)" xlink:href="#ay"/><use transform="matrix(0.05,0,0,0.05,44.95,0)" xlink:href="#az"/><use transform="matrix(0.05,0,0,0.05,54.95,0)" xlink:href="#aD"/><use transform="matrix(0.05,0,0,0.05,63.95,0)" xlink:href="#aC"/><use transform="matrix(0.05,0,0,0.05,73.95,0)" xlink:href="#aF"/><use transform="matrix(0.05,0,0,0.05,78.95,0)" xlink:href="#aE"/><use transform="matrix(0.05,0,0,0.05,83.95,0)" xlink:href="#aC"/><use transform="matrix(0.05,0,0,0.05,93.95,0)" xlink:href="#aG"/><use transform="matrix(0.05,0,0,0.05,108.9,0)" xlink:href="#aH"/><use transform="matrix(0.05,0,0,0.05,114.85000000000001,0)" xlink:href="#aI"/></g><path fill="#333" d="M101-234c-31-9-42 10-38 44h38v23H63V0H32v-167H5v-23h27c-7-52 17-82 69-68v24" id="aS"/><path fill="#333" d="M140-251c81 0 123 46 123 126C263-46 219 4 140 4 59 4 17-45 17-125s42-126 123-126zm0 227c63 0 89-41 89-101s-29-99-89-99c-61 0-89 39-89 99S79-25 140-24" id="aT"/><path fill="#333" d="M117-194c89-4 53 116 60 194h-32v-121c0-31-8-49-39-48C34-167 62-67 57 0H25l-1-190h30c1 10-1 24 2 32 11-22 29-35 61-36" id="aU"/><g id="x"><use transform="matrix(0.05,0,0,0.05,0,0)" xlink:href="#aS"/><use transform="matrix(0.05,0,0,0.05,5,0)" xlink:href="#aC"/><use transform="matrix(0.05,0,0,0.05,15,0)" xlink:href="#aE"/><use transform="matrix(0.05,0,0,0.05,20,0)" xlink:href="#aL"/><use transform="matrix(0.05,0,0,0.05,29,0)" xlink:href="#ay"/><use transform="matrix(0.05,0,0,0.05,39,0)" xlink:href="#aF"/><use transform="matrix(0.05,0,0,0.05,44,0)" xlink:href="#aE"/><use transform="matrix(0.05,0,0,0.05,49,0)" xlink:href="#aC"/><use transform="matrix(0.05,0,0,0.05,59,0)" xlink:href="#aG"/><use transform="matrix(0.05,0,0,0.05,73.95,0)" xlink:href="#aT"/><use transform="matrix(0.05,0,0,0.05,87.95,0)" xlink:href="#aU"/><use transform="matrix(0.05,0,0,0.05,97.95,0)" xlink:href="#aC"/><use transform="matrix(0.05,0,0,0.05,107.95,0)" xlink:href="#aH"/><use transform="matrix(0.05,0,0,0.05,113.9,0)" xlink:href="#aI"/></g><path fill="#333" d="M127-220V0H93v-220H8v-28h204v28h-85" id="aV"/><path fill="#333" d="M206 0h-36l-40-164L89 0H53L-1-190h32L70-26l43-164h34l41 164 42-164h31" id="aW"/><g id="y"><use transform="matrix(0.05,0,0,0.05,0,0)" xlink:href="#aS"/><use transform="matrix(0.05,0,0,0.05,5,0)" xlink:href="#aC"/><use transform="matrix(0.05,0,0,0.05,15,0)" xlink:href="#aE"/><use transform="matrix(0.05,0,0,0.05,20,0)" xlink:href="#aL"/><use transform="matrix(0.05,0,0,0.05,29,0)" xlink:href="#ay"/><use transform="matrix(0.05,0,0,0.05,39,0)" xlink:href="#aR"/><use transform="matrix(0.05,0,0,0.05,42.95,0)" xlink:href="#aE"/><use transform="matrix(0.05,0,0,0.05,47.95,0)" xlink:href="#aC"/><use transform="matrix(0.05,0,0,0.05,57.95,0)" xlink:href="#aG"/><use transform="matrix(0.05,0,0,0.05,72.9,0)" xlink:href="#aV"/><use transform="matrix(0.05,0,0,0.05,82.85000000000001,0)" xlink:href="#aW"/><use transform="matrix(0.05,0,0,0.05,95.80000000000001,0)" xlink:href="#aK"/><use transform="matrix(0.05,0,0,0.05,105.80000000000001,0)" xlink:href="#aH"/><use transform="matrix(0.05,0,0,0.05,111.75,0)" xlink:href="#aI"/></g></defs></g></svg>